<?xml version="1.0" encoding="iso-8859-1"?>
<!-- Generator: Adobe Illustrator 19.0.0, SVG Export Plug-In . SVG Version: 6.00 Build 0)  -->
<svg version="1.1" id="Layer_1" xmlns="http://www.w3.org/2000/svg" xmlns:xlink="http://www.w3.org/1999/xlink" x="0px" y="0px"
	 viewBox="0 0 395.879 395.879" style="enable-background:new 0 0 395.879 395.879;" xml:space="preserve">
<g>
	<g>
		<g>
			<path d="M393.535,140.034L276.329,22.827c-1.5-1.5-3.535-2.343-5.657-2.343s-4.157,0.843-5.657,2.343L43.313,244.529
				c-1.5,1.5-2.343,3.535-2.343,5.657c0,2.122,0.843,4.157,2.343,5.657L160.52,373.049c1.562,1.562,3.609,2.343,5.657,2.343
				c2.048,0,4.095-0.781,5.657-2.343l110.851-110.851l52.378-52.378c0.003-0.003,0.005-0.005,0.008-0.008l58.465-58.465
				C396.66,148.223,396.66,143.158,393.535,140.034z M270.672,39.798l94.552,94.552H176.12L270.672,39.798z M166.177,356.078
				L60.284,250.186l27.085-27.085l105.893,105.893L166.177,356.078z M204.575,317.68L98.682,211.787l61.139-61.139l29.29,29.29
				c0.002,0.001,0.003,0.003,0.005,0.005l29.872,29.872c0,0,0.001,0.001,0.002,0.002l46.724,46.724L204.575,317.68z
				 M277.027,245.228l-33.068-33.069h66.137L277.027,245.228z M326.096,196.159h-98.137l-13.875-13.875h125.887L326.096,196.159z
				 M355.97,166.284H198.084l-15.935-15.935h189.756L355.97,166.284z"/>
			<path d="M255.001,359.392h-20c-4.418,0-8,3.582-8,8c0,4.418,3.582,8,8,8h20c4.418,0,8-3.582,8-8
				C263.001,362.974,259.42,359.392,255.001,359.392z"/>
			<path d="M375.001,359.392h-20c-4.418,0-8,3.582-8,8c0,4.418,3.582,8,8,8h20c4.418,0,8-3.582,8-8
				C383.001,362.974,379.42,359.392,375.001,359.392z"/>
			<path d="M315.001,359.392h-20c-4.418,0-8,3.582-8,8c0,4.418,3.582,8,8,8h20c4.418,0,8-3.582,8-8
				C323.001,362.974,319.42,359.392,315.001,359.392z"/>
			<path d="M112,359.395c-2.1,0-4.17,0.85-5.66,2.34c-1.48,1.49-2.34,3.55-2.34,5.66c0,2.1,0.86,4.16,2.34,5.65
				c1.49,1.49,3.56,2.35,5.66,2.35c2.11,0,4.17-0.86,5.66-2.35c1.49-1.49,2.34-3.55,2.34-5.65c0-2.11-0.85-4.17-2.34-5.66
				C116.17,360.245,114.11,359.395,112,359.395z"/>
			<path d="M77.34,359.395c-4.42,0-8.01,3.58-8.01,8c0,4.42,3.59,8,8.01,8c4.41,0,7.99-3.58,7.99-8
				C85.33,362.975,81.75,359.395,77.34,359.395z"/>
			<circle cx="42.67" cy="367.395" r="8"/>
			<path d="M8,359.395c-2.1,0-4.17,0.85-5.66,2.34c-1.48,1.49-2.34,3.55-2.34,5.66c0,2.1,0.86,4.16,2.34,5.65
				c1.49,1.49,3.56,2.35,5.66,2.35c2.11,0,4.17-0.86,5.66-2.35c1.49-1.49,2.34-3.55,2.34-5.65c0-2.11-0.85-4.17-2.34-5.66
				C12.17,360.245,10.11,359.395,8,359.395z"/>
			<path d="M76,336.995c2.11,0,4.17-0.86,5.66-2.34c1.49-1.5,2.34-3.56,2.34-5.66c0-2.11-0.85-4.17-2.34-5.66
				c-1.49-1.49-3.55-2.34-5.66-2.34c-2.1,0-4.17,0.85-5.65,2.34c-1.49,1.49-2.35,3.55-2.35,5.66c0,2.11,0.86,4.17,2.35,5.66
				C71.83,336.135,73.9,336.995,76,336.995z"/>
			<path d="M40.07,328.295c0.65,0.16,1.3,0.23,1.94,0.23c3.59,0.01,6.85-2.43,7.75-6.06c1.07-4.29-1.54-8.63-5.83-9.7
				c-4.28-1.07-8.62,1.54-9.69,5.83S35.78,327.225,40.07,328.295z"/>
			<path d="M8,304.065c-2.1,0-4.17,0.85-5.66,2.34c-1.48,1.49-2.34,3.55-2.34,5.66c0,2.11,0.86,4.17,2.34,5.66
				c1.49,1.49,3.56,2.34,5.66,2.34c2.11,0,4.17-0.85,5.66-2.34c1.49-1.49,2.34-3.56,2.34-5.66c0-2.11-0.85-4.17-2.34-5.66
				C12.17,304.915,10.11,304.065,8,304.065z"/>
		</g>
	</g>
</g>
<g>
</g>
<g>
</g>
<g>
</g>
<g>
</g>
<g>
</g>
<g>
</g>
<g>
</g>
<g>
</g>
<g>
</g>
<g>
</g>
<g>
</g>
<g>
</g>
<g>
</g>
<g>
</g>
<g>
</g>
</svg>
