<?xml version="1.0" encoding="iso-8859-1"?>
<!-- Generator: Adobe Illustrator 19.0.0, SVG Export Plug-In . SVG Version: 6.00 Build 0)  -->
<svg version="1.1" id="Layer_1" xmlns="http://www.w3.org/2000/svg" xmlns:xlink="http://www.w3.org/1999/xlink" x="0px" y="0px"
	 viewBox="0 0 512 512" style="enable-background:new 0 0 512 512;" xml:space="preserve">
<g>
	<g>
		<path d="M500.981,212.05l-1.461-7.25H399.153l3.623,11.707c4.529,14.63,6.825,29.944,6.825,45.516
			c0,84.696-68.904,153.6-153.6,153.6s-153.6-68.904-153.6-153.6c0-45.25,19.645-87.374,54.174-116.766l78.343,78.343V0H11.317
			l77,77.001C35.895,124.386,6.024,191.268,6.024,262.024c0,66.796,25.995,129.578,73.197,176.78
			C126.422,486.005,189.204,512,256,512s129.578-25.995,176.78-73.197c47.202-47.202,73.197-109.984,73.197-176.78
			C505.976,245.314,504.295,228.5,500.981,212.05z M420.001,426.025C376.213,469.814,317.969,493.929,256,493.929
			s-120.213-24.116-164.001-67.904S24.094,323.992,24.094,262.024c0-68.672,30.345-133.415,83.256-177.628l7.581-6.336l-59.99-59.99
			h161.905v161.905l-58.855-58.856l-6.289,4.839c-42.818,32.948-67.374,82.54-67.374,136.064
			c0,94.66,77.012,171.671,171.672,171.671s171.671-77.011,171.671-171.671c0-13.281-1.5-26.404-4.465-39.153h61.401
			c2.19,12.949,3.297,26.086,3.297,39.153C487.906,323.992,463.79,382.236,420.001,426.025z"/>
	</g>
</g>
<g>
	<g>
		<rect x="180.706" y="33.129" width="18.071" height="54.212"/>
	</g>
</g>
<g>
	<g>
		<rect x="180.706" y="99.388" width="18.071" height="24.094"/>
	</g>
</g>
<g>
</g>
<g>
</g>
<g>
</g>
<g>
</g>
<g>
</g>
<g>
</g>
<g>
</g>
<g>
</g>
<g>
</g>
<g>
</g>
<g>
</g>
<g>
</g>
<g>
</g>
<g>
</g>
<g>
</g>
</svg>
