<?xml version="1.0" encoding="iso-8859-1"?>
<!-- Generator: Adobe Illustrator 19.0.0, SVG Export Plug-In . SVG Version: 6.00 Build 0)  -->
<svg version="1.1" id="Layer_1" xmlns="http://www.w3.org/2000/svg" xmlns:xlink="http://www.w3.org/1999/xlink" x="0px" y="0px"
	 viewBox="0 0 512 512" style="enable-background:new 0 0 512 512;" xml:space="preserve">
<g>
	<g>
		<g>
			<path d="M280.216,183.747h71.66V32.024h-71.66V183.747z M295.832,47.641h40.427v120.488h-40.427V47.641z"/>
			<path d="M32.024,0v512h447.951V0H32.024z M263.809,15.617h136.5v184.538h-136.5V15.617z M111.691,15.617h136.5v184.538h-136.5
				V15.617z M400.309,496.383H111.691V351.876h288.618V496.383z M400.309,336.259H111.691v-48.433h288.618V336.259z
				 M464.359,496.383h-0.001h-48.433V272.21H96.074v224.173H47.641V15.617h48.433v200.155h319.852V15.617h48.433V496.383z"/>
			<rect x="127.9" y="304.232" width="16.013" height="15.617"/>
			<rect x="159.924" y="304.232" width="16.012" height="15.617"/>
			<rect x="191.949" y="304.232" width="16.012" height="15.617"/>
			<rect x="135.906" y="376.287" width="240.183" height="15.617"/>
			<rect x="135.906" y="416.317" width="240.183" height="15.617"/>
			<rect x="135.906" y="456.348" width="240.183" height="15.617"/>
			<rect x="432.132" y="464.354" width="16.012" height="15.617"/>
			<rect x="63.851" y="464.354" width="16.013" height="15.617"/>
		</g>
	</g>
</g>
<g>
</g>
<g>
</g>
<g>
</g>
<g>
</g>
<g>
</g>
<g>
</g>
<g>
</g>
<g>
</g>
<g>
</g>
<g>
</g>
<g>
</g>
<g>
</g>
<g>
</g>
<g>
</g>
<g>
</g>
</svg>
